<?xml version="1.0" encoding="UTF-8"?>
<svg version="1.1" xmlns="http://www.w3.org/2000/svg" width="1920" height="1920">
<path d="M0 0 C633.6 0 1267.2 0 1920 0 C1920 633.6 1920 1267.2 1920 1920 C1286.4 1920 652.8 1920 0 1920 C0 1286.4 0 652.8 0 0 Z " fill="#000000" transform="translate(0,0)"/>
<path d="M0 0 C1.5513409 -0.00611323 3.10266756 -0.01838658 4.65391767 -0.03624833 C8.89738536 -0.06743353 13.13587019 -0.01175442 17.37870288 0.05864453 C21.96070294 0.11927622 26.54243681 0.0986321 31.12472534 0.0880127 C39.05700575 0.08068215 46.9876703 0.12449078 54.91954422 0.20334244 C66.3873153 0.31727046 77.85430747 0.35359714 89.32258312 0.37117432 C107.92996541 0.40179244 126.53648699 0.49489801 145.1434021 0.62741089 C163.21497296 0.75597714 181.2863098 0.85504506 199.35824585 0.91452026 C201.03000952 0.92003746 201.03000952 0.92003746 202.73554619 0.92566611 C208.32688102 0.94393704 213.91821751 0.96162885 219.5095551 0.97903275 C265.87345745 1.12409646 312.23576726 1.38214645 358.59896851 1.68356323 C358.59896851 35.01356323 358.59896851 68.34356323 358.59896851 102.68356323 C400.50896851 102.68356323 442.41896851 102.68356323 485.59896851 102.68356323 C487.08396851 97.73356323 487.08396851 97.73356323 488.59896851 92.68356323 C489.7305603 89.97872925 489.7305603 89.97872925 490.79818726 87.93746948 C491.1983606 87.16862427 491.59853394 86.39977905 492.01083374 85.6076355 C492.43179321 84.82831665 492.85275269 84.0489978 493.28646851 83.24606323 C493.72998657 82.41840454 494.17350464 81.59074585 494.63046265 80.73800659 C500.83129819 69.36887989 508.70863548 60.01007421 517.59896851 50.68356323 C518.67598022 49.50987183 518.67598022 49.50987183 519.77474976 48.31246948 C534.10419221 33.173454 553.1010117 22.5718925 572.59896851 15.68356323 C573.75396851 15.16793823 574.90896851 14.65231323 576.09896851 14.12106323 C610.52903959 -0.01985882 649.18052684 1.09680384 685.66218758 1.27798748 C691.65846993 1.30337996 697.6547647 1.30537239 703.65109253 1.31008911 C714.9513381 1.32240967 726.25142467 1.35507978 737.55160093 1.39548707 C750.43962057 1.44054945 763.32764871 1.46227755 776.21572781 1.48226881 C802.67689541 1.52382505 829.13792296 1.59395925 855.59896851 1.68356323 C854.32051212 4.28989244 853.01939181 6.62185862 851.27084351 8.94137573 C850.80790894 9.55778931 850.34497437 10.17420288 849.86801147 10.80929565 C849.36672729 11.46905396 848.86544312 12.12881226 848.34896851 12.80856323 C847.56030396 13.85330811 847.56030396 13.85330811 846.75570679 14.91915894 C840.97894134 22.54723452 835.08809881 30.08675788 829.20053101 37.62936401 C822.18364348 46.62937798 815.29306551 55.72062575 808.45834351 64.85934448 C808.00310869 65.44344495 807.54787388 66.02754541 807.07884407 66.62934589 C805.56125281 68.6237527 805.56125281 68.6237527 804.54183769 70.77353954 C803.12690674 73.29794964 801.8811813 74.8823224 799.59896851 76.68356323 C794.55046108 77.88518402 789.5448368 77.72358222 784.39242554 77.63595581 C782.83130424 77.63865236 781.27018566 77.64490943 779.70909119 77.65444946 C776.35125421 77.66729927 772.99479495 77.65494512 769.63708878 77.62290382 C764.31398159 77.57219638 758.99179913 77.57728022 753.66851807 77.5894928 C745.23375021 77.60215687 736.79958653 77.57673306 728.36492622 77.53547257 C713.30158415 77.46275858 698.23816513 77.44965399 683.17466819 77.45762748 C677.89859765 77.45886353 672.62298959 77.44216576 667.34702039 77.40997946 C664.04119891 77.39233161 660.73542751 77.38695289 657.42956352 77.38418579 C655.91400145 77.3802556 654.39844108 77.37121513 652.88294792 77.35623741 C629.48222381 77.13203304 607.63566101 83.19403723 589.59896851 98.68356323 C589.00599976 99.18114136 588.41303101 99.67871948 587.80209351 100.19137573 C578.26220745 108.89980383 572.56627718 120.28445198 569.59896851 132.68356323 C569.41076538 133.29586792 569.22256226 133.90817261 569.02865601 134.53903198 C565.82910868 150.50768179 570.03197569 167.43575544 578.67318726 180.98043823 C589.65120309 196.3897424 607.00997783 207.28515595 625.66968727 211.10776901 C627.75980094 211.41270598 629.84298399 211.64666713 631.94589233 211.84518433 C632.75032933 211.92467505 633.55476633 212.00416576 634.38358021 212.08606529 C646.24134179 213.13769622 658.15375962 213.04274328 670.04818726 213.09762573 C672.64420661 213.11637832 675.24022014 213.13595462 677.83622742 213.15631104 C683.91649086 213.20203475 689.99675192 213.23959443 696.0770939 213.27298391 C703.01337013 213.31154534 709.94955782 213.3608631 716.88575876 213.41096807 C731.12343374 213.51358167 745.36115975 213.6016468 759.59896851 213.68356323 C759.59896851 200.15356323 759.59896851 186.62356323 759.59896851 172.68356323 C711.08896851 172.68356323 662.57896851 172.68356323 612.59896851 172.68356323 C615.97129376 167.06302115 615.97129376 167.06302115 618.20053101 164.51950073 C618.6859436 163.96061157 619.1713562 163.40172241 619.67147827 162.82589722 C620.18380005 162.242677 620.69612183 161.65945679 621.22396851 161.05856323 C622.3095876 159.80811449 623.39421457 158.55680373 624.47787476 157.30465698 C625.0104187 156.68961304 625.54296265 156.07456909 626.09164429 155.44088745 C628.15613506 153.0339868 630.1625973 150.58260264 632.16146851 148.12106323 C635.42675549 144.09997745 638.74469617 140.13024241 642.09896851 136.18356323 C650.6962932 126.6771233 650.6962932 126.6771233 657.95724487 116.25025368 C660.79979613 111.72545685 662.94736109 109.09551976 668.25126648 107.77257919 C672.93251152 107.31851948 677.61041266 107.44547761 682.30599976 107.54830933 C684.1101109 107.55113252 685.91423353 107.54954192 687.71833801 107.54388428 C692.60095408 107.54102144 697.48110061 107.59970064 702.36314392 107.66962385 C707.47059517 107.73224861 712.57810662 107.73801979 717.68588257 107.74987793 C727.35117818 107.78092706 737.01533917 107.86294317 746.68013573 107.96337283 C759.74492066 108.09617805 772.81001712 108.15005149 785.87530708 108.208395 C806.45071034 108.30235213 827.02371956 108.50158874 847.59896851 108.68356323 C847.59896851 167.75356323 847.59896851 226.82356323 847.59896851 287.68356323 C794.5691317 287.80447234 794.5691317 287.80447234 772.24740601 287.83004761 C756.87042214 287.84780801 741.4934878 287.86862051 726.11654663 287.90988159 C714.91469759 287.9399251 703.71288896 287.9591715 692.51100075 287.96582872 C686.58800062 287.9697158 680.66511602 287.97875375 674.74215317 288.0007534 C669.14927571 288.02135561 663.55655964 288.0273499 657.96364784 288.02288628 C655.9281571 288.023701 653.89266006 288.02952349 651.85720253 288.04117966 C623.86757353 288.19338707 597.52303849 283.2620775 571.59896851 272.68356323 C570.94621948 272.41849976 570.29347046 272.15343628 569.62094116 271.88034058 C554.07275946 265.4305747 538.98556027 256.07638832 526.59896851 244.68356323 C526.03790405 244.17019409 525.4768396 243.65682495 524.89877319 243.12789917 C506.36342913 225.9706476 493.18344815 205.85330655 485.59896851 181.68356323 C485.26896851 180.69356323 484.93896851 179.70356323 484.59896851 178.68356323 C443.01896851 178.35356323 401.43896851 178.02356323 358.59896851 177.68356323 C358.59896851 213.98356323 358.59896851 250.28356323 358.59896851 287.68356323 C319.32896851 287.68356323 280.05896851 287.68356323 239.59896851 287.68356323 C242.76076575 284.52176599 246.11442971 282.45757952 249.91146851 280.18356323 C262.63619347 272.37993088 273.84442404 263.00553934 284.59896851 252.68356323 C285.15294312 252.15875366 285.70691772 251.63394409 286.27767944 251.0932312 C290.68296548 246.82766052 294.40400766 242.28835237 297.97396851 237.30856323 C298.53342163 236.52980835 299.09287476 235.75105347 299.66928101 234.94869995 C305.09482697 227.23502953 309.52892778 219.1769779 313.59896851 210.68356323 C314.08881226 209.69614136 314.57865601 208.70871948 315.08334351 207.69137573 C319.44564105 198.18587554 321.41051903 187.85931953 323.59896851 177.68356323 C323.95668335 176.04774292 323.95668335 176.04774292 324.32162476 174.37887573 C328.57734029 153.13182187 328.81458755 128.73443629 323.59896851 107.68356323 C323.31763062 106.50262085 323.31763062 106.50262085 323.03060913 105.29782104 C320.98802755 96.79367474 318.86209344 88.41367424 315.29818726 80.39840698 C314.59896851 78.68356323 314.59896851 78.68356323 314.59896851 76.68356323 C187.54896851 76.68356323 60.49896851 76.68356323 -70.40103149 76.68356323 C-68.57334812 72.1143548 -67.23967924 70.07011461 -64.08853149 66.49606323 C-59.76899393 61.48587872 -55.85559614 56.26310856 -52.02603149 50.87106323 C-47.86805519 45.02682381 -43.6068091 39.31697585 -39.08853149 33.74606323 C-35.72584745 29.5985361 -32.41819689 25.44075353 -29.27603149 21.12106323 C-28.68472108 20.31782124 -28.09341067 19.51457924 -27.48418176 18.68699658 C-25.98008977 16.5184348 -24.66730062 14.43389512 -23.37655604 12.14924514 C-17.29837555 1.86402774 -11.84260798 -0.34865219 0 0 Z " fill="#FCFCFC" transform="translate(567.4010314941406,815.3164367675781)"/>
<path d="M0 0 C29.37 0 58.74 0 89 0 C89 34.65 89 69.3 89 105 C108.59584251 104.93801338 108.59584251 104.93801338 128.19140625 104.83984375 C136.19841711 104.79172682 144.2052546 104.74760083 152.21240234 104.72900391 C158.67706818 104.71371932 165.14138094 104.6790674 171.60588837 104.63169098 C174.05664733 104.61699791 176.50745673 104.60896603 178.95825958 104.60811615 C193.79898986 104.59780599 207.57821754 103.58052017 222 100 C223.00975891 99.76657898 224.01951782 99.53315796 225.05987549 99.29266357 C240.83629384 95.49208006 256.17141528 84.41944877 265 71 C274.47271538 54.91168986 277.96503885 38.03828261 273.875 19.5 C272.37495667 14.37244803 270.01366485 9.86643224 267.3046875 5.27734375 C266 3 266 3 265 0 C296.35 0 327.7 0 360 0 C367.26287687 25.42006905 365.90816437 56.65692132 355 81 C354.69674805 81.68803711 354.39349609 82.37607422 354.08105469 83.08496094 C349.30411761 93.85238619 344.20527516 103.62810363 337 113 C336.30390625 113.9178125 335.6078125 114.835625 334.890625 115.78125 C310.68578283 146.52316633 275.38739332 165.25099714 237.5625 173.6875 C236.65781982 173.89020508 235.75313965 174.09291016 234.82104492 174.30175781 C219.46164443 177.56340131 204.5443711 178.28752536 188.90625 178.22705078 C186.83495082 178.22648534 184.76365124 178.22680581 182.69235229 178.22793579 C177.11906144 178.22850512 171.54585823 178.21681937 165.97258759 178.20278788 C160.1296789 178.19020995 154.28676779 178.18910448 148.44384766 178.18673706 C137.40166271 178.18054292 126.35951778 178.16416029 115.31735039 178.14403808 C100.38037054 178.11741435 85.44337961 178.10668973 70.50638199 178.09503365 C47.00422473 178.07627804 23.5021519 178.03641862 0 178 C0 119.26 0 60.52 0 0 Z " fill="#FDFDFD" transform="translate(496,925)"/>
<path d="M0 0 C21 0 21 0 28 4 C31.61419077 8.50110876 31.49953268 12.53594928 31.35546875 18.11328125 C30.84749403 22.23848254 29.84753638 23.99426715 27 27 C24.75 28.375 24.75 28.375 23 29 C25.04620194 34.63267678 28.03951521 39.77672501 30.8984375 45.02539062 C31.29546875 45.76337891 31.6925 46.50136719 32.1015625 47.26171875 C32.46588379 47.93162842 32.83020508 48.60153809 33.20556641 49.29174805 C34 51 34 51 34 53 C30.04 53 26.08 53 22 53 C21.62875 52.0925 21.2575 51.185 20.875 50.25 C18.88770938 45.5745868 16.53439093 41.08737121 14.20703125 36.57421875 C13 34 13 34 13 32 C12.34 32 11.68 32 11 32 C11 38.93 11 45.86 11 53 C7.37 53 3.74 53 0 53 C0 35.51 0 18.02 0 0 Z " fill="#F0F0F0" transform="translate(600,1321)"/>
<path d="M0 0 C1.51400391 0.01740234 1.51400391 0.01740234 3.05859375 0.03515625 C4.07050781 0.04417969 5.08242188 0.05320312 6.125 0.0625 C7.29869141 0.07990234 7.29869141 0.07990234 8.49609375 0.09765625 C10.99609375 6.59765625 13.49609375 13.09765625 15.99609375 19.59765625 C16.40730469 20.66628906 16.81851563 21.73492188 17.2421875 22.8359375 C18.08993304 25.04113228 18.9362493 27.24687697 19.78125 29.453125 C20.41353516 31.10248047 20.41353516 31.10248047 21.05859375 32.78515625 C21.4659375 33.84992188 21.87328125 34.9146875 22.29296875 36.01171875 C23.72882588 39.69459905 25.24571345 43.34083602 26.796875 46.9765625 C27.49609375 49.09765625 27.49609375 49.09765625 27.49609375 53.09765625 C24.19609375 53.09765625 20.89609375 53.09765625 17.49609375 53.09765625 C13.49609375 44.34765625 13.49609375 44.34765625 13.49609375 42.09765625 C6.23609375 42.09765625 -1.02390625 42.09765625 -8.50390625 42.09765625 C-9.49390625 45.72765625 -10.48390625 49.35765625 -11.50390625 53.09765625 C-15.13390625 53.09765625 -18.76390625 53.09765625 -22.50390625 53.09765625 C-22.01097661 48.41482472 -20.58100562 44.54080564 -18.796875 40.23828125 C-17.20777756 36.37835877 -15.69888236 32.49002621 -14.19140625 28.59765625 C-13.89588867 27.83751221 -13.60037109 27.07736816 -13.29589844 26.29418945 C-11.69994354 22.18865949 -10.11165109 18.08029273 -8.53125 13.96875 C-8.21260986 13.14246094 -7.89396973 12.31617188 -7.56567383 11.46484375 C-6.9500237 9.86803632 -6.33651403 8.27040168 -5.7253418 6.671875 C-3.19729003 0.1246993 -3.19729003 0.1246993 0 0 Z " fill="#F1F1F1" transform="translate(904.50390625,1320.90234375)"/>
<path d="M0 0 C3.125 2.25 3.125 2.25 5 4 C4.66753345 7.07531556 4.36895244 8.61832506 2.1875 10.875 C0 12 0 12 -1.875 11.9375 C-4.81758325 10.63930151 -7.32748806 8.78167463 -10 7 C-14.30184734 5.27926106 -19.57950679 5.10026111 -23.93359375 6.71875 C-28.93479837 9.38605913 -32.20777087 12.62331262 -34 18 C-34.53422104 23.96889281 -34.53306722 28.93593698 -31 34 C-25.82902203 39.07445304 -22.16258346 40.43203011 -15.02734375 40.44140625 C-10.63222805 39.80057003 -7.71199823 37.72718156 -4.19140625 35.1171875 C-3.46824219 34.74851562 -2.74507813 34.37984375 -2 34 C0.93562741 34.99262222 3.16273632 36.4858497 5 39 C4.75752926 41.75176099 4.25334895 42.77274708 2.1796875 44.6328125 C-6.63134163 50.33758052 -14.47893927 52.18846703 -25 51 C-33.2072581 48.55262068 -38.65245793 43.40388935 -43.09375 36.234375 C-46.37157338 29.25382521 -46.26807209 19.83075083 -44.34375 12.5 C-41.30333654 5.79012203 -35.28462715 -0.31116204 -28.55859375 -3.33984375 C-19.08754029 -5.78352014 -8.4897532 -4.91774354 0 0 Z " fill="#F3F3F3" transform="translate(482,1324)"/>
<path d="M0 0 C9.57 0 19.14 0 29 0 C29 3.3 29 6.6 29 10 C22.73 10 16.46 10 10 10 C10 12.97 10 15.94 10 19 C16.27 19 22.54 19 29 19 C29 22.3 29 25.6 29 29 C22.73 29 16.46 29 10 29 C10 33.62 10 38.24 10 43 C16.27 43 22.54 43 29 43 C29 46.3 29 49.6 29 53 C19.43 53 9.86 53 0 53 C0 35.51 0 18.02 0 0 Z " fill="#F5F5F5" transform="translate(745,1321)"/>
<path d="M0 0 C9.57 0 19.14 0 29 0 C29 3.3 29 6.6 29 10 C22.4 10 15.8 10 9 10 C9 12.97 9 15.94 9 19 C15.27 19 21.54 19 28 19 C28 22.3 28 25.6 28 29 C22.06 29 16.12 29 10 29 C10 33.29 10 37.58 10 42 C15.94 42 21.88 42 28 42 C28 45.3 28 48.6 28 52 C18.76 52 9.52 52 0 52 C0 34.84 0 17.68 0 0 Z " fill="#F6F6F6" transform="translate(1455,1321)"/>
<path d="M0 0 C3.3 0 6.6 0 10 0 C13.19298069 8.41271154 16.341005 16.84099128 19.375 25.3125 C19.76872803 26.39615845 19.76872803 26.39615845 20.17041016 27.50170898 C21.22402282 30.4671587 22 32.82781226 22 36 C22.66 36 23.32 36 24 36 C24.09796875 35.40574219 24.1959375 34.81148437 24.296875 34.19921875 C25.50986732 27.47547684 27.55961306 21.3662268 30 15 C30.71092854 13.02176406 31.41932087 11.04261458 32.125 9.0625 C33.26155025 5.87358422 34.47568498 3.04863005 36 0 C39.3 0 42.6 0 46 0 C45.38321299 3.34071382 44.5829371 6.50761024 43.51171875 9.73046875 C43.21716797 10.61669922 42.92261719 11.50292969 42.61914062 12.41601562 C42.31169922 13.33060547 42.00425781 14.24519531 41.6875 15.1875 C41.39166016 16.08275391 41.09582031 16.97800781 40.79101562 17.90039062 C39.01811435 23.2037778 37.07403294 28.39970973 34.96606445 33.57836914 C33.44651862 37.3874101 32.09596601 41.25191412 30.75 45.125 C30.481875 45.89070313 30.21375 46.65640625 29.9375 47.4453125 C29.28969432 49.29618586 28.64455082 51.14799065 28 53 C24.37 53 20.74 53 17 53 C16.65388672 51.81857422 16.65388672 51.81857422 16.30078125 50.61328125 C14.20969631 43.62922286 11.83184956 36.85167472 9.16015625 30.0703125 C7.81547302 26.51165588 6.72729689 22.92153429 5.68359375 19.265625 C5.0315088 17.10442918 4.26769144 15.03569529 3.4375 12.9375 C1.79578913 8.71225466 0.90144416 4.43787892 0 0 Z " fill="#F3F3F3" transform="translate(1297,1321)"/>
<path d="M0 0 C9.57 0 19.14 0 29 0 C29 3.3 29 6.6 29 10 C26.03 10 23.06 10 20 10 C20 24.19 20 38.38 20 53 C16.37 53 12.74 53 9 53 C9 38.81 9 24.62 9 10 C6.03 10 3.06 10 0 10 C0 6.7 0 3.4 0 0 Z " fill="#EFEFEF" transform="translate(1038,1321)"/>
<path d="M0 0 C3.3 0 6.6 0 10 0 C10 17.16 10 34.32 10 52 C6.7 52 3.4 52 0 52 C0 34.84 0 17.68 0 0 Z " fill="#F8F8F8" transform="translate(1176,1321)"/>
<path d="M0 0 C0.33 0 0.66 0 1 0 C1 36.3 1 72.6 1 110 C-38.27 110 -77.54 110 -118 110 C-115.16671013 107.16671013 -113.64553172 106.2808625 -110 105 C-110.66 105.99 -111.32 106.98 -112 108 C-75.04 108.33 -38.08 108.66 0 109 C0 73.03 0 37.06 0 0 Z " fill="#B7B7B7" transform="translate(925,993)"/>
<path d="M0 0 C0.66 0 1.32 0 2 0 C3.00419637 2.4566947 4.00350501 4.91518353 5 7.375 C5.28617188 8.07367187 5.57234375 8.77234375 5.8671875 9.4921875 C8 14.7734375 8 14.7734375 8 17 C3.71 17 -0.58 17 -5 17 C-4.46246904 10.81839396 -2.45417612 5.673142 0 0 Z " fill="#171717" transform="translate(906,1336)"/>
<path d="M0 0 C1.423125 -0.061875 2.84625 -0.12375 4.3125 -0.1875 C5.51326172 -0.23970703 5.51326172 -0.23970703 6.73828125 -0.29296875 C9 0 9 0 10.8046875 1.3515625 C12 3 12 3 11.8125 5.5625 C11 8 11 8 9 10 C5.98173347 10.27240673 3.03629378 10.08675125 0 10 C0 6.7 0 3.4 0 0 Z " fill="#101010" transform="translate(610,1331)"/>
<path d="M0 0 C0.66 0.33 1.32 0.66 2 1 C-1.3618226 5.25171681 -4.74828319 8.6381774 -9 12 C-9.66 11.67 -10.32 11.34 -11 11 C-7.37 7.37 -3.74 3.74 0 0 Z " fill="#232323" transform="translate(1160,910)"/>
</svg>
